# xmcd
#
# Track frame offsets: 
#        150
#        15714
#        32126
#        48501
#        76543
#        107772
#
# Disc length: 1833 seconds
#
# Revision: 1
# Processed by: cddbd v1.5.2PL0 Copyright (c) Steve Scherf et al.
# Submitted via: ExactAudioCopy v1.3
#
DISCID=3c072706
DTITLE=J.C.A. feat. Dannii Minogue - Come And Get It
DYEAR=2004
DGENRE=House
TTITLE0=Come And Get It [Radio Version]
TTITLE1=Come And Get It [Radio Cut]
TTITLE2=Come And Get It [Late Night Radio Version]
TTITLE3=Come And Get It [Sharam Jey Remix]
TTITLE4=Come And Get It [Tom Novy and J.C.A. Late Night Session Mix]
TTITLE5=Come And Get It [Extended Version]
EXTD=
EXTT0=
EXTT1=
EXTT2=
EXTT3=
EXTT4=
EXTT5=
PLAYORDER=
